<svg width="399" height="311" viewBox="0 0 399 311" fill="none" xmlns="http://www.w3.org/2000/svg">
<g filter="url(#filter0_d_411_28)">
<path d="M10 81.5V129.5L201.5 0.5L10 81.5Z" fill="#F06749"/>
</g>
<g filter="url(#filter1_d_411_28)">
<path d="M202 41.9765V1L10 130L202 41.9765Z" fill="#DB4110"/>
</g>
<g filter="url(#filter2_d_411_28)">
<path d="M393.5 82V130L202 1L393.5 82Z" fill="#C31D1D"/>
</g>
<g filter="url(#filter3_d_411_28)">
<path d="M202 42V1.5L394.5 129L202 42Z" fill="#930D0D"/>
</g>
<g filter="url(#filter4_d_411_28)">
<path d="M10 156.5V204.5L201.5 75.5L10 156.5Z" fill="#73B3EE"/>
</g>
<g filter="url(#filter5_d_411_28)">
<path d="M202 116.976V76L10 205L202 116.976Z" fill="#1995CA"/>
</g>
<g filter="url(#filter6_d_411_28)">
<path d="M393.5 157V205L202 76L393.5 157Z" fill="#1783D2"/>
</g>
<g filter="url(#filter7_d_411_28)">
<path d="M202 117V76.5L394.5 204L202 117Z" fill="#0E397A"/>
</g>
<g filter="url(#filter8_d_411_28)">
<path d="M30.16 286.72C24.88 286.72 20.344 285.664 16.552 283.552C12.808 281.392 9.928 278.368 7.912 274.48C5.896 270.544 4.888 265.912 4.888 260.584C4.888 256.6 5.464 253.024 6.616 249.856C7.768 246.64 9.424 243.904 11.584 241.648C13.744 239.344 16.384 237.592 19.504 236.392C22.672 235.144 26.224 234.52 30.16 234.52C32.8 234.52 35.392 234.856 37.936 235.528C40.48 236.2 42.712 237.16 44.632 238.408C45.64 239.032 46.312 239.8 46.648 240.712C46.984 241.576 47.056 242.44 46.864 243.304C46.672 244.12 46.264 244.816 45.64 245.392C45.064 245.968 44.32 246.304 43.408 246.4C42.544 246.448 41.584 246.136 40.528 245.464C39.04 244.504 37.432 243.808 35.704 243.376C33.976 242.944 32.224 242.728 30.448 242.728C27.04 242.728 24.16 243.424 21.808 244.816C19.456 246.208 17.68 248.224 16.48 250.864C15.28 253.504 14.68 256.744 14.68 260.584C14.68 264.376 15.28 267.616 16.48 270.304C17.68 272.992 19.456 275.032 21.808 276.424C24.16 277.816 27.04 278.512 30.448 278.512C32.272 278.512 34.072 278.296 35.848 277.864C37.624 277.384 39.304 276.664 40.888 275.704C41.944 275.08 42.88 274.816 43.696 274.912C44.56 274.96 45.28 275.248 45.856 275.776C46.432 276.304 46.816 276.976 47.008 277.792C47.2 278.56 47.152 279.376 46.864 280.24C46.576 281.056 46 281.776 45.136 282.4C43.216 283.792 40.912 284.872 38.224 285.64C35.584 286.36 32.896 286.72 30.16 286.72ZM58.3615 286.576C56.9215 286.576 55.7935 286.192 54.9775 285.424C54.2095 284.608 53.8255 283.456 53.8255 281.968V254.896C53.8255 253.408 54.2095 252.28 54.9775 251.512C55.7935 250.696 56.9215 250.288 58.3615 250.288C59.8015 250.288 60.9055 250.696 61.6735 251.512C62.4415 252.28 62.8255 253.408 62.8255 254.896V264.472H67.9375L76.9375 252.376C77.6095 251.464 78.3775 250.888 79.2415 250.648C80.1055 250.36 80.9215 250.336 81.6895 250.576C82.5055 250.816 83.1535 251.248 83.6335 251.872C84.1615 252.496 84.4255 253.24 84.4255 254.104C84.4735 254.92 84.1615 255.784 83.4895 256.696L74.9215 268.432L72.9775 265.552C74.2735 265.696 75.4255 266.056 76.4335 266.632C77.4895 267.208 78.4495 268.024 79.3135 269.08C80.2255 270.088 81.1135 271.36 81.9775 272.896L86.2255 280.456C86.8015 281.464 86.9935 282.4 86.8015 283.264C86.6575 284.08 86.2495 284.776 85.5775 285.352C84.9535 285.928 84.2095 286.288 83.3455 286.432C82.4815 286.576 81.6175 286.456 80.7535 286.072C79.9375 285.736 79.2415 285.064 78.6655 284.056L73.8415 275.632C73.2175 274.528 72.5935 273.688 71.9695 273.112C71.3935 272.488 70.7215 272.056 69.9535 271.816C69.2335 271.576 68.3455 271.456 67.2895 271.456H62.8255V281.968C62.8255 283.456 62.4415 284.608 61.6735 285.424C60.9055 286.192 59.8015 286.576 58.3615 286.576ZM121.044 286.576C119.604 286.576 118.5 286.192 117.732 285.424C116.964 284.608 116.58 283.456 116.58 281.968V257.848H105.492V261.952C105.492 265.264 105.276 268.24 104.844 270.88C104.46 273.52 103.836 275.824 102.972 277.792C102.156 279.76 101.076 281.416 99.7323 282.76C98.3883 284.104 96.7803 285.184 94.9083 286C93.9003 286.432 92.9643 286.552 92.1003 286.36C91.2843 286.168 90.5883 285.808 90.0123 285.28C89.4843 284.704 89.1483 284.032 89.0043 283.264C88.8603 282.448 88.9563 281.656 89.2923 280.888C89.6283 280.12 90.2763 279.472 91.2363 278.944C92.4363 278.272 93.4203 277.432 94.1883 276.424C94.9563 275.416 95.5563 274.216 95.9883 272.824C96.4203 271.384 96.7323 269.752 96.9243 267.928C97.1163 266.104 97.2123 264.016 97.2123 261.664V255.832C97.2123 254.2 97.6443 252.952 98.5083 252.088C99.3723 251.224 100.62 250.792 102.252 250.792H120.54C122.172 250.792 123.42 251.224 124.284 252.088C125.148 252.952 125.58 254.2 125.58 255.832V281.968C125.58 283.456 125.172 284.608 124.356 285.424C123.588 286.192 122.484 286.576 121.044 286.576ZM146.221 286.72C143.677 286.72 141.397 286.24 139.381 285.28C137.413 284.272 135.853 282.928 134.701 281.248C133.597 279.568 133.045 277.672 133.045 275.56C133.045 272.968 133.717 270.928 135.061 269.44C136.405 267.904 138.589 266.8 141.613 266.128C144.637 265.456 148.693 265.12 153.781 265.12H157.381V270.304H153.853C150.877 270.304 148.501 270.448 146.725 270.736C144.949 271.024 143.677 271.528 142.909 272.248C142.189 272.92 141.829 273.88 141.829 275.128C141.829 276.712 142.381 278.008 143.485 279.016C144.589 280.024 146.125 280.528 148.093 280.528C149.677 280.528 151.069 280.168 152.269 279.448C153.517 278.68 154.501 277.648 155.221 276.352C155.941 275.056 156.301 273.568 156.301 271.888V263.608C156.301 261.208 155.773 259.48 154.717 258.424C153.661 257.368 151.885 256.84 149.389 256.84C147.997 256.84 146.485 257.008 144.853 257.344C143.269 257.68 141.589 258.256 139.813 259.072C138.901 259.504 138.085 259.624 137.365 259.432C136.693 259.24 136.165 258.856 135.781 258.28C135.397 257.656 135.205 256.984 135.205 256.264C135.205 255.544 135.397 254.848 135.781 254.176C136.165 253.456 136.813 252.928 137.725 252.592C139.933 251.68 142.045 251.032 144.061 250.648C146.125 250.264 147.997 250.072 149.677 250.072C153.133 250.072 155.965 250.6 158.173 251.656C160.429 252.712 162.109 254.32 163.213 256.48C164.317 258.592 164.869 261.328 164.869 264.688V281.968C164.869 283.456 164.509 284.608 163.789 285.424C163.069 286.192 162.037 286.576 160.693 286.576C159.349 286.576 158.293 286.192 157.525 285.424C156.805 284.608 156.445 283.456 156.445 281.968V278.512H157.021C156.685 280.192 156.013 281.656 155.005 282.904C154.045 284.104 152.821 285.04 151.333 285.712C149.845 286.384 148.141 286.72 146.221 286.72ZM174.341 295.936C173.141 295.936 172.181 295.576 171.461 294.856C170.789 294.184 170.453 293.2 170.453 291.904V283.12C170.453 280.336 171.845 278.944 174.629 278.944H178.661L173.333 280.816C174.581 279.136 175.565 277.384 176.285 275.56C177.005 273.736 177.533 271.648 177.869 269.296C178.205 266.896 178.373 264.064 178.373 260.8V255.832C178.373 254.2 178.805 252.952 179.669 252.088C180.533 251.224 181.781 250.792 183.413 250.792H200.765C202.397 250.792 203.645 251.224 204.509 252.088C205.373 252.952 205.805 254.2 205.805 255.832V283.12L201.629 278.944H207.389C208.733 278.944 209.765 279.304 210.485 280.024C211.205 280.696 211.565 281.728 211.565 283.12V291.904C211.565 294.592 210.293 295.936 207.749 295.936C206.501 295.936 205.541 295.576 204.869 294.856C204.245 294.184 203.933 293.2 203.933 291.904V286H178.085V291.904C178.085 294.592 176.837 295.936 174.341 295.936ZM182.621 278.944H197.381V257.704H186.077V262.888C186.077 265.912 185.765 268.84 185.141 271.672C184.565 274.504 183.725 276.928 182.621 278.944ZM255.856 286.576C254.368 286.576 253.216 286.168 252.4 285.352C251.632 284.488 251.248 283.312 251.248 281.824V242.944H233.104V253.024C233.104 257.392 232.816 261.28 232.24 264.688C231.664 268.096 230.824 271.12 229.72 273.76C228.664 276.4 227.32 278.704 225.688 280.672C224.104 282.64 222.28 284.344 220.216 285.784C219.16 286.552 218.08 286.816 216.976 286.576C215.872 286.384 214.912 285.76 214.096 284.704C213.328 283.6 213.064 282.52 213.304 281.464C213.592 280.408 214.288 279.496 215.392 278.728C216.928 277.672 218.272 276.376 219.424 274.84C220.576 273.304 221.536 271.432 222.304 269.224C223.072 267.016 223.648 264.4 224.032 261.376C224.416 258.304 224.608 254.728 224.608 250.648V240.136C224.608 238.552 225.016 237.352 225.832 236.536C226.696 235.672 227.92 235.24 229.504 235.24H255.568C257.152 235.24 258.352 235.672 259.168 236.536C260.032 237.352 260.464 238.552 260.464 240.136V281.824C260.464 283.312 260.056 284.488 259.24 285.352C258.472 286.168 257.344 286.576 255.856 286.576ZM281.557 286.72C279.013 286.72 276.733 286.24 274.717 285.28C272.749 284.272 271.189 282.928 270.037 281.248C268.933 279.568 268.381 277.672 268.381 275.56C268.381 272.968 269.053 270.928 270.397 269.44C271.741 267.904 273.925 266.8 276.949 266.128C279.973 265.456 284.029 265.12 289.117 265.12H292.717V270.304H289.189C286.213 270.304 283.837 270.448 282.061 270.736C280.285 271.024 279.013 271.528 278.245 272.248C277.525 272.92 277.165 273.88 277.165 275.128C277.165 276.712 277.717 278.008 278.821 279.016C279.925 280.024 281.461 280.528 283.429 280.528C285.013 280.528 286.405 280.168 287.605 279.448C288.853 278.68 289.837 277.648 290.557 276.352C291.277 275.056 291.637 273.568 291.637 271.888V263.608C291.637 261.208 291.109 259.48 290.053 258.424C288.997 257.368 287.221 256.84 284.725 256.84C283.333 256.84 281.821 257.008 280.189 257.344C278.605 257.68 276.925 258.256 275.149 259.072C274.237 259.504 273.421 259.624 272.701 259.432C272.029 259.24 271.501 258.856 271.117 258.28C270.733 257.656 270.541 256.984 270.541 256.264C270.541 255.544 270.733 254.848 271.117 254.176C271.501 253.456 272.149 252.928 273.061 252.592C275.269 251.68 277.381 251.032 279.397 250.648C281.461 250.264 283.333 250.072 285.013 250.072C288.469 250.072 291.301 250.6 293.509 251.656C295.765 252.712 297.445 254.32 298.549 256.48C299.653 258.592 300.205 261.328 300.205 264.688V281.968C300.205 283.456 299.845 284.608 299.125 285.424C298.405 286.192 297.373 286.576 296.029 286.576C294.685 286.576 293.629 286.192 292.861 285.424C292.141 284.608 291.781 283.456 291.781 281.968V278.512H292.357C292.021 280.192 291.349 281.656 290.341 282.904C289.381 284.104 288.157 285.04 286.669 285.712C285.181 286.384 283.477 286.72 281.557 286.72ZM313.204 286.576C312.292 286.576 311.524 286.408 310.9 286.072C310.276 285.736 309.796 285.208 309.46 284.488C309.172 283.768 309.028 282.856 309.028 281.752V254.536C309.028 253.144 309.388 252.088 310.108 251.368C310.828 250.6 311.836 250.216 313.132 250.216C314.428 250.216 315.412 250.6 316.084 251.368C316.804 252.088 317.164 253.144 317.164 254.536V276.784H315.292L333.076 253.096C333.604 252.424 334.252 251.776 335.02 251.152C335.788 250.528 336.844 250.216 338.188 250.216C339.1 250.216 339.844 250.384 340.42 250.72C341.044 251.056 341.5 251.584 341.788 252.304C342.124 252.976 342.292 253.864 342.292 254.968V282.256C342.292 283.6 341.932 284.656 341.212 285.424C340.54 286.192 339.556 286.576 338.26 286.576C336.916 286.576 335.884 286.192 335.164 285.424C334.492 284.656 334.156 283.6 334.156 282.256V259.936H336.1L318.244 283.696C317.764 284.368 317.14 285.016 316.372 285.64C315.652 286.264 314.596 286.576 313.204 286.576ZM325.66 246.328C322.684 246.328 320.092 245.656 317.884 244.312C315.676 242.92 314.116 240.976 313.204 238.48C312.868 237.568 312.82 236.824 313.06 236.248C313.348 235.624 313.852 235.192 314.572 234.952C315.292 234.712 315.916 234.736 316.444 235.024C317.02 235.312 317.524 235.888 317.956 236.752C318.772 238.288 319.804 239.44 321.052 240.208C322.348 240.976 323.884 241.36 325.66 241.36C327.484 241.36 329.02 240.976 330.268 240.208C331.564 239.44 332.596 238.288 333.364 236.752C333.796 235.888 334.276 235.312 334.804 235.024C335.38 234.736 336.028 234.712 336.748 234.952C337.468 235.192 337.948 235.624 338.188 236.248C338.476 236.824 338.404 237.568 337.972 238.48C336.772 240.976 335.164 242.92 333.148 244.312C331.132 245.656 328.636 246.328 325.66 246.328ZM355.794 286.576C354.354 286.576 353.226 286.192 352.41 285.424C351.642 284.608 351.258 283.456 351.258 281.968V254.752C351.258 253.216 351.642 252.088 352.41 251.368C353.226 250.6 354.354 250.216 355.794 250.216C357.234 250.216 358.338 250.6 359.106 251.368C359.874 252.088 360.258 253.216 360.258 254.752V264.4H375.81V254.752C375.81 253.216 376.194 252.088 376.962 251.368C377.73 250.6 378.834 250.216 380.274 250.216C381.714 250.216 382.818 250.6 383.586 251.368C384.402 252.088 384.81 253.216 384.81 254.752V281.968C384.81 283.456 384.402 284.608 383.586 285.424C382.818 286.192 381.714 286.576 380.274 286.576C378.834 286.576 377.73 286.192 376.962 285.424C376.194 284.608 375.81 283.456 375.81 281.968V271.456H360.258V281.968C360.258 283.456 359.874 284.608 359.106 285.424C358.386 286.192 357.282 286.576 355.794 286.576Z" fill="black"/>
</g>
<defs>
<filter id="filter0_d_411_28" x="6" y="0.5" width="199.5" height="137" filterUnits="userSpaceOnUse" color-interpolation-filters="sRGB">
<feFlood flood-opacity="0" result="BackgroundImageFix"/>
<feColorMatrix in="SourceAlpha" type="matrix" values="0 0 0 0 0 0 0 0 0 0 0 0 0 0 0 0 0 0 127 0" result="hardAlpha"/>
<feOffset dy="4"/>
<feGaussianBlur stdDeviation="2"/>
<feComposite in2="hardAlpha" operator="out"/>
<feColorMatrix type="matrix" values="0 0 0 0 0 0 0 0 0 0 0 0 0 0 0 0 0 0 0.25 0"/>
<feBlend mode="normal" in2="BackgroundImageFix" result="effect1_dropShadow_411_28"/>
<feBlend mode="normal" in="SourceGraphic" in2="effect1_dropShadow_411_28" result="shape"/>
</filter>
<filter id="filter1_d_411_28" x="6" y="1" width="200" height="137" filterUnits="userSpaceOnUse" color-interpolation-filters="sRGB">
<feFlood flood-opacity="0" result="BackgroundImageFix"/>
<feColorMatrix in="SourceAlpha" type="matrix" values="0 0 0 0 0 0 0 0 0 0 0 0 0 0 0 0 0 0 127 0" result="hardAlpha"/>
<feOffset dy="4"/>
<feGaussianBlur stdDeviation="2"/>
<feComposite in2="hardAlpha" operator="out"/>
<feColorMatrix type="matrix" values="0 0 0 0 0 0 0 0 0 0 0 0 0 0 0 0 0 0 0.25 0"/>
<feBlend mode="normal" in2="BackgroundImageFix" result="effect1_dropShadow_411_28"/>
<feBlend mode="normal" in="SourceGraphic" in2="effect1_dropShadow_411_28" result="shape"/>
</filter>
<filter id="filter2_d_411_28" x="198" y="1" width="199.5" height="137" filterUnits="userSpaceOnUse" color-interpolation-filters="sRGB">
<feFlood flood-opacity="0" result="BackgroundImageFix"/>
<feColorMatrix in="SourceAlpha" type="matrix" values="0 0 0 0 0 0 0 0 0 0 0 0 0 0 0 0 0 0 127 0" result="hardAlpha"/>
<feOffset dy="4"/>
<feGaussianBlur stdDeviation="2"/>
<feComposite in2="hardAlpha" operator="out"/>
<feColorMatrix type="matrix" values="0 0 0 0 0 0 0 0 0 0 0 0 0 0 0 0 0 0 0.25 0"/>
<feBlend mode="normal" in2="BackgroundImageFix" result="effect1_dropShadow_411_28"/>
<feBlend mode="normal" in="SourceGraphic" in2="effect1_dropShadow_411_28" result="shape"/>
</filter>
<filter id="filter3_d_411_28" x="198" y="1.5" width="200.5" height="135.5" filterUnits="userSpaceOnUse" color-interpolation-filters="sRGB">
<feFlood flood-opacity="0" result="BackgroundImageFix"/>
<feColorMatrix in="SourceAlpha" type="matrix" values="0 0 0 0 0 0 0 0 0 0 0 0 0 0 0 0 0 0 127 0" result="hardAlpha"/>
<feOffset dy="4"/>
<feGaussianBlur stdDeviation="2"/>
<feComposite in2="hardAlpha" operator="out"/>
<feColorMatrix type="matrix" values="0 0 0 0 0 0 0 0 0 0 0 0 0 0 0 0 0 0 0.25 0"/>
<feBlend mode="normal" in2="BackgroundImageFix" result="effect1_dropShadow_411_28"/>
<feBlend mode="normal" in="SourceGraphic" in2="effect1_dropShadow_411_28" result="shape"/>
</filter>
<filter id="filter4_d_411_28" x="6" y="75.5" width="199.5" height="137" filterUnits="userSpaceOnUse" color-interpolation-filters="sRGB">
<feFlood flood-opacity="0" result="BackgroundImageFix"/>
<feColorMatrix in="SourceAlpha" type="matrix" values="0 0 0 0 0 0 0 0 0 0 0 0 0 0 0 0 0 0 127 0" result="hardAlpha"/>
<feOffset dy="4"/>
<feGaussianBlur stdDeviation="2"/>
<feComposite in2="hardAlpha" operator="out"/>
<feColorMatrix type="matrix" values="0 0 0 0 0 0 0 0 0 0 0 0 0 0 0 0 0 0 0.25 0"/>
<feBlend mode="normal" in2="BackgroundImageFix" result="effect1_dropShadow_411_28"/>
<feBlend mode="normal" in="SourceGraphic" in2="effect1_dropShadow_411_28" result="shape"/>
</filter>
<filter id="filter5_d_411_28" x="6" y="76" width="200" height="137" filterUnits="userSpaceOnUse" color-interpolation-filters="sRGB">
<feFlood flood-opacity="0" result="BackgroundImageFix"/>
<feColorMatrix in="SourceAlpha" type="matrix" values="0 0 0 0 0 0 0 0 0 0 0 0 0 0 0 0 0 0 127 0" result="hardAlpha"/>
<feOffset dy="4"/>
<feGaussianBlur stdDeviation="2"/>
<feComposite in2="hardAlpha" operator="out"/>
<feColorMatrix type="matrix" values="0 0 0 0 0 0 0 0 0 0 0 0 0 0 0 0 0 0 0.25 0"/>
<feBlend mode="normal" in2="BackgroundImageFix" result="effect1_dropShadow_411_28"/>
<feBlend mode="normal" in="SourceGraphic" in2="effect1_dropShadow_411_28" result="shape"/>
</filter>
<filter id="filter6_d_411_28" x="198" y="76" width="199.5" height="137" filterUnits="userSpaceOnUse" color-interpolation-filters="sRGB">
<feFlood flood-opacity="0" result="BackgroundImageFix"/>
<feColorMatrix in="SourceAlpha" type="matrix" values="0 0 0 0 0 0 0 0 0 0 0 0 0 0 0 0 0 0 127 0" result="hardAlpha"/>
<feOffset dy="4"/>
<feGaussianBlur stdDeviation="2"/>
<feComposite in2="hardAlpha" operator="out"/>
<feColorMatrix type="matrix" values="0 0 0 0 0 0 0 0 0 0 0 0 0 0 0 0 0 0 0.25 0"/>
<feBlend mode="normal" in2="BackgroundImageFix" result="effect1_dropShadow_411_28"/>
<feBlend mode="normal" in="SourceGraphic" in2="effect1_dropShadow_411_28" result="shape"/>
</filter>
<filter id="filter7_d_411_28" x="198" y="76.5" width="200.5" height="135.5" filterUnits="userSpaceOnUse" color-interpolation-filters="sRGB">
<feFlood flood-opacity="0" result="BackgroundImageFix"/>
<feColorMatrix in="SourceAlpha" type="matrix" values="0 0 0 0 0 0 0 0 0 0 0 0 0 0 0 0 0 0 127 0" result="hardAlpha"/>
<feOffset dy="4"/>
<feGaussianBlur stdDeviation="2"/>
<feComposite in2="hardAlpha" operator="out"/>
<feColorMatrix type="matrix" values="0 0 0 0 0 0 0 0 0 0 0 0 0 0 0 0 0 0 0.25 0"/>
<feBlend mode="normal" in2="BackgroundImageFix" result="effect1_dropShadow_411_28"/>
<feBlend mode="normal" in="SourceGraphic" in2="effect1_dropShadow_411_28" result="shape"/>
</filter>
<filter id="filter8_d_411_28" x="0.888" y="234.52" width="387.922" height="69.416" filterUnits="userSpaceOnUse" color-interpolation-filters="sRGB">
<feFlood flood-opacity="0" result="BackgroundImageFix"/>
<feColorMatrix in="SourceAlpha" type="matrix" values="0 0 0 0 0 0 0 0 0 0 0 0 0 0 0 0 0 0 127 0" result="hardAlpha"/>
<feOffset dy="4"/>
<feGaussianBlur stdDeviation="2"/>
<feComposite in2="hardAlpha" operator="out"/>
<feColorMatrix type="matrix" values="0 0 0 0 0 0 0 0 0 0 0 0 0 0 0 0 0 0 0.25 0"/>
<feBlend mode="normal" in2="BackgroundImageFix" result="effect1_dropShadow_411_28"/>
<feBlend mode="normal" in="SourceGraphic" in2="effect1_dropShadow_411_28" result="shape"/>
</filter>
</defs>
</svg>
