<svg width="1138" height="205" viewBox="0 0 1138 205" fill="none" xmlns="http://www.w3.org/2000/svg">
<path d="M0 81V129L191.5 0L0 81Z" fill="#F06749"/>
<path d="M192 41.4765V0.5L0 129.5L192 41.4765Z" fill="#DB4110"/>
<path d="M383.5 81.5V129.5L192 0.5L383.5 81.5Z" fill="#C31D1D"/>
<path d="M192 41.5V1L384.5 128.5L192 41.5Z" fill="#930D0D"/>
<path d="M0 156V204L191.5 75L0 156Z" fill="#73B3EE"/>
<path d="M192 116.476V75.5L0 204.5L192 116.476Z" fill="#1995CA"/>
<path d="M383.5 156.5V204.5L192 75.5L383.5 156.5Z" fill="#1783D2"/>
<path d="M192 116.5V76L384.5 203.5L192 116.5Z" fill="#0E397A"/>
<path d="M477.84 170.28C468.453 170.28 460.389 168.403 453.648 164.648C446.992 160.808 441.872 155.432 438.288 148.52C434.704 141.523 432.912 133.288 432.912 123.816C432.912 116.733 433.936 110.376 435.984 104.744C438.032 99.0267 440.976 94.1627 444.816 90.152C448.656 86.056 453.349 82.9413 458.896 80.808C464.528 78.5893 470.843 77.48 477.84 77.48C482.533 77.48 487.141 78.0773 491.664 79.272C496.187 80.4667 500.155 82.1733 503.568 84.392C505.36 85.5013 506.555 86.8667 507.152 88.488C507.749 90.024 507.877 91.56 507.536 93.096C507.195 94.5467 506.469 95.784 505.36 96.808C504.336 97.832 503.013 98.4293 501.392 98.6C499.856 98.6853 498.149 98.1307 496.272 96.936C493.627 95.2293 490.768 93.992 487.696 93.224C484.624 92.456 481.509 92.072 478.352 92.072C472.293 92.072 467.173 93.3093 462.992 95.784C458.811 98.2587 455.653 101.843 453.52 106.536C451.387 111.229 450.32 116.989 450.32 123.816C450.32 130.557 451.387 136.317 453.52 141.096C455.653 145.875 458.811 149.501 462.992 151.976C467.173 154.451 472.293 155.688 478.352 155.688C481.595 155.688 484.795 155.304 487.952 154.536C491.109 153.683 494.096 152.403 496.912 150.696C498.789 149.587 500.453 149.117 501.904 149.288C503.44 149.373 504.72 149.885 505.744 150.824C506.768 151.763 507.451 152.957 507.792 154.408C508.133 155.773 508.048 157.224 507.536 158.76C507.024 160.211 506 161.491 504.464 162.6C501.051 165.075 496.955 166.995 492.176 168.36C487.483 169.64 482.704 170.28 477.84 170.28ZM527.976 170.024C525.416 170.024 523.411 169.341 521.96 167.976C520.595 166.525 519.912 164.477 519.912 161.832V113.704C519.912 111.059 520.595 109.053 521.96 107.688C523.411 106.237 525.416 105.512 527.976 105.512C530.536 105.512 532.499 106.237 533.864 107.688C535.229 109.053 535.912 111.059 535.912 113.704V130.728H545L561 109.224C562.195 107.603 563.56 106.579 565.096 106.152C566.632 105.64 568.083 105.597 569.448 106.024C570.899 106.451 572.051 107.219 572.904 108.328C573.843 109.437 574.312 110.76 574.312 112.296C574.397 113.747 573.843 115.283 572.648 116.904L557.416 137.768L553.96 132.648C556.264 132.904 558.312 133.544 560.104 134.568C561.981 135.592 563.688 137.043 565.224 138.92C566.845 140.712 568.424 142.973 569.96 145.704L577.512 159.144C578.536 160.936 578.877 162.6 578.536 164.136C578.28 165.587 577.555 166.824 576.36 167.848C575.251 168.872 573.928 169.512 572.392 169.768C570.856 170.024 569.32 169.811 567.784 169.128C566.333 168.531 565.096 167.336 564.072 165.544L555.496 150.568C554.387 148.605 553.277 147.112 552.168 146.088C551.144 144.979 549.949 144.211 548.584 143.784C547.304 143.357 545.725 143.144 543.848 143.144H535.912V161.832C535.912 164.477 535.229 166.525 533.864 167.976C532.499 169.341 530.536 170.024 527.976 170.024ZM639.412 170.024C636.852 170.024 634.889 169.341 633.524 167.976C632.159 166.525 631.476 164.477 631.476 161.832V118.952H611.764V126.248C611.764 132.136 611.38 137.427 610.612 142.12C609.929 146.813 608.82 150.909 607.284 154.408C605.833 157.907 603.913 160.851 601.524 163.24C599.135 165.629 596.276 167.549 592.948 169C591.156 169.768 589.492 169.981 587.956 169.64C586.505 169.299 585.268 168.659 584.244 167.72C583.305 166.696 582.708 165.501 582.452 164.136C582.196 162.685 582.367 161.277 582.964 159.912C583.561 158.547 584.713 157.395 586.42 156.456C588.553 155.261 590.303 153.768 591.668 151.976C593.033 150.184 594.1 148.051 594.868 145.576C595.636 143.016 596.191 140.115 596.532 136.872C596.873 133.629 597.044 129.917 597.044 125.736V115.368C597.044 112.467 597.812 110.248 599.348 108.712C600.884 107.176 603.103 106.408 606.004 106.408H638.516C641.417 106.408 643.636 107.176 645.172 108.712C646.708 110.248 647.476 112.467 647.476 115.368V161.832C647.476 164.477 646.751 166.525 645.3 167.976C643.935 169.341 641.972 170.024 639.412 170.024ZM684.171 170.28C679.648 170.28 675.595 169.427 672.011 167.72C668.512 165.928 665.739 163.539 663.691 160.552C661.728 157.565 660.747 154.195 660.747 150.44C660.747 145.832 661.942 142.205 664.331 139.56C666.72 136.829 670.603 134.867 675.979 133.672C681.355 132.477 688.566 131.88 697.611 131.88H704.011V141.096H697.739C692.448 141.096 688.224 141.352 685.067 141.864C681.91 142.376 679.648 143.272 678.283 144.552C677.003 145.747 676.363 147.453 676.363 149.672C676.363 152.488 677.344 154.792 679.307 156.584C681.27 158.376 684 159.272 687.499 159.272C690.315 159.272 692.79 158.632 694.923 157.352C697.142 155.987 698.891 154.152 700.171 151.848C701.451 149.544 702.091 146.899 702.091 143.912V129.192C702.091 124.925 701.152 121.853 699.275 119.976C697.398 118.099 694.24 117.16 689.803 117.16C687.328 117.16 684.64 117.459 681.739 118.056C678.923 118.653 675.936 119.677 672.779 121.128C671.158 121.896 669.707 122.109 668.427 121.768C667.232 121.427 666.294 120.744 665.611 119.72C664.928 118.611 664.587 117.416 664.587 116.136C664.587 114.856 664.928 113.619 665.611 112.424C666.294 111.144 667.446 110.205 669.067 109.608C672.992 107.987 676.747 106.835 680.331 106.152C684 105.469 687.328 105.128 690.315 105.128C696.459 105.128 701.494 106.067 705.419 107.944C709.43 109.821 712.416 112.68 714.379 116.52C716.342 120.275 717.323 125.139 717.323 131.112V161.832C717.323 164.477 716.683 166.525 715.403 167.976C714.123 169.341 712.288 170.024 709.899 170.024C707.51 170.024 705.632 169.341 704.267 167.976C702.987 166.525 702.347 164.477 702.347 161.832V155.688H703.371C702.774 158.675 701.579 161.277 699.787 163.496C698.08 165.629 695.904 167.293 693.259 168.488C690.614 169.683 687.584 170.28 684.171 170.28ZM734.161 186.664C732.028 186.664 730.321 186.024 729.041 184.744C727.846 183.549 727.249 181.8 727.249 179.496V163.88C727.249 158.931 729.724 156.456 734.673 156.456H741.841L732.369 159.784C734.588 156.797 736.337 153.683 737.617 150.44C738.897 147.197 739.836 143.485 740.433 139.304C741.03 135.037 741.329 130.003 741.329 124.2V115.368C741.329 112.467 742.097 110.248 743.633 108.712C745.169 107.176 747.388 106.408 750.289 106.408H781.137C784.038 106.408 786.257 107.176 787.793 108.712C789.329 110.248 790.097 112.467 790.097 115.368V163.88L782.673 156.456H792.913C795.302 156.456 797.137 157.096 798.417 158.376C799.697 159.571 800.337 161.405 800.337 163.88V179.496C800.337 184.275 798.076 186.664 793.553 186.664C791.334 186.664 789.628 186.024 788.433 184.744C787.324 183.549 786.769 181.8 786.769 179.496V169H740.817V179.496C740.817 184.275 738.598 186.664 734.161 186.664ZM748.881 156.456H775.121V118.696H755.025V127.912C755.025 133.288 754.47 138.493 753.361 143.528C752.337 148.563 750.844 152.872 748.881 156.456ZM879.078 170.024C876.433 170.024 874.385 169.299 872.934 167.848C871.569 166.312 870.886 164.221 870.886 161.576V92.456H838.63V110.376C838.63 118.141 838.118 125.053 837.094 131.112C836.07 137.171 834.577 142.547 832.614 147.24C830.737 151.933 828.347 156.029 825.446 159.528C822.63 163.027 819.387 166.056 815.718 168.616C813.841 169.981 811.921 170.451 809.958 170.024C807.995 169.683 806.289 168.573 804.838 166.696C803.473 164.733 803.003 162.813 803.43 160.936C803.942 159.059 805.179 157.437 807.142 156.072C809.873 154.195 812.262 151.891 814.31 149.16C816.358 146.429 818.065 143.101 819.43 139.176C820.795 135.251 821.819 130.6 822.502 125.224C823.185 119.763 823.526 113.405 823.526 106.152V87.464C823.526 84.648 824.251 82.5147 825.702 81.064C827.238 79.528 829.414 78.76 832.23 78.76H878.566C881.382 78.76 883.515 79.528 884.966 81.064C886.502 82.5147 887.27 84.648 887.27 87.464V161.576C887.27 164.221 886.545 166.312 885.094 167.848C883.729 169.299 881.723 170.024 879.078 170.024ZM924.768 170.28C920.245 170.28 916.192 169.427 912.608 167.72C909.109 165.928 906.336 163.539 904.288 160.552C902.325 157.565 901.344 154.195 901.344 150.44C901.344 145.832 902.539 142.205 904.928 139.56C907.317 136.829 911.2 134.867 916.576 133.672C921.952 132.477 929.163 131.88 938.208 131.88H944.608V141.096H938.336C933.045 141.096 928.821 141.352 925.664 141.864C922.507 142.376 920.245 143.272 918.88 144.552C917.6 145.747 916.96 147.453 916.96 149.672C916.96 152.488 917.941 154.792 919.904 156.584C921.867 158.376 924.597 159.272 928.096 159.272C930.912 159.272 933.387 158.632 935.52 157.352C937.739 155.987 939.488 154.152 940.768 151.848C942.048 149.544 942.688 146.899 942.688 143.912V129.192C942.688 124.925 941.749 121.853 939.872 119.976C937.995 118.099 934.837 117.16 930.4 117.16C927.925 117.16 925.237 117.459 922.336 118.056C919.52 118.653 916.533 119.677 913.376 121.128C911.755 121.896 910.304 122.109 909.024 121.768C907.829 121.427 906.891 120.744 906.208 119.72C905.525 118.611 905.184 117.416 905.184 116.136C905.184 114.856 905.525 113.619 906.208 112.424C906.891 111.144 908.043 110.205 909.664 109.608C913.589 107.987 917.344 106.835 920.928 106.152C924.597 105.469 927.925 105.128 930.912 105.128C937.056 105.128 942.091 106.067 946.016 107.944C950.027 109.821 953.013 112.68 954.976 116.52C956.939 120.275 957.92 125.139 957.92 131.112V161.832C957.92 164.477 957.28 166.525 956 167.976C954.72 169.341 952.885 170.024 950.496 170.024C948.107 170.024 946.229 169.341 944.864 167.976C943.584 166.525 942.944 164.477 942.944 161.832V155.688H943.968C943.371 158.675 942.176 161.277 940.384 163.496C938.677 165.629 936.501 167.293 933.856 168.488C931.211 169.683 928.181 170.28 924.768 170.28ZM981.03 170.024C979.409 170.024 978.043 169.725 976.934 169.128C975.825 168.531 974.971 167.592 974.374 166.312C973.862 165.032 973.606 163.411 973.606 161.448V113.064C973.606 110.589 974.246 108.712 975.526 107.432C976.806 106.067 978.598 105.384 980.902 105.384C983.206 105.384 984.955 106.067 986.15 107.432C987.43 108.712 988.07 110.589 988.07 113.064V152.616H984.742L1016.36 110.504C1017.3 109.309 1018.45 108.157 1019.81 107.048C1021.18 105.939 1023.06 105.384 1025.45 105.384C1027.07 105.384 1028.39 105.683 1029.41 106.28C1030.52 106.877 1031.33 107.816 1031.85 109.096C1032.44 110.291 1032.74 111.869 1032.74 113.832V162.344C1032.74 164.733 1032.1 166.611 1030.82 167.976C1029.63 169.341 1027.88 170.024 1025.57 170.024C1023.18 170.024 1021.35 169.341 1020.07 167.976C1018.88 166.611 1018.28 164.733 1018.28 162.344V122.664H1021.73L989.99 164.904C989.137 166.099 988.027 167.251 986.662 168.36C985.382 169.469 983.505 170.024 981.03 170.024ZM1003.17 98.472C997.883 98.472 993.275 97.2773 989.35 94.888C985.425 92.4133 982.651 88.9573 981.03 84.52C980.433 82.8987 980.347 81.576 980.774 80.552C981.286 79.4427 982.182 78.6747 983.462 78.248C984.742 77.8213 985.851 77.864 986.79 78.376C987.814 78.888 988.71 79.912 989.478 81.448C990.929 84.1787 992.763 86.2267 994.982 87.592C997.286 88.9573 1000.02 89.64 1003.17 89.64C1006.42 89.64 1009.15 88.9573 1011.37 87.592C1013.67 86.2267 1015.5 84.1787 1016.87 81.448C1017.64 79.912 1018.49 78.888 1019.43 78.376C1020.45 77.864 1021.61 77.8213 1022.89 78.248C1024.17 78.6747 1025.02 79.4427 1025.45 80.552C1025.96 81.576 1025.83 82.8987 1025.06 84.52C1022.93 88.9573 1020.07 92.4133 1016.49 94.888C1012.9 97.2773 1008.46 98.472 1003.17 98.472ZM1056.74 170.024C1054.18 170.024 1052.18 169.341 1050.73 167.976C1049.36 166.525 1048.68 164.477 1048.68 161.832V113.448C1048.68 110.717 1049.36 108.712 1050.73 107.432C1052.18 106.067 1054.18 105.384 1056.74 105.384C1059.3 105.384 1061.27 106.067 1062.63 107.432C1064 108.712 1064.68 110.717 1064.68 113.448V130.6H1092.33V113.448C1092.33 110.717 1093.01 108.712 1094.38 107.432C1095.74 106.067 1097.7 105.384 1100.26 105.384C1102.82 105.384 1104.79 106.067 1106.15 107.432C1107.6 108.712 1108.33 110.717 1108.33 113.448V161.832C1108.33 164.477 1107.6 166.525 1106.15 167.976C1104.79 169.341 1102.82 170.024 1100.26 170.024C1097.7 170.024 1095.74 169.341 1094.38 167.976C1093.01 166.525 1092.33 164.477 1092.33 161.832V143.144H1064.68V161.832C1064.68 164.477 1064 166.525 1062.63 167.976C1061.35 169.341 1059.39 170.024 1056.74 170.024Z" fill="black"/>
</svg>
